# xmcd
#
# Track frame offsets:
# 150
# 15740
# 30999
# 46726
# 69294
# 90513
# 114416
# 133105
# 153775
# 176821
# 194560
#
# Disc length: 2890 seconds
#
# Revision: 3
# Processed by: cddbd v1.4PL0 Copyright (c) Steve Scherf et al.
# Submitted via: Axialis_AX_CDPlayer 2.6
#
DISCID=830b480b
DTITLE=Zucchero Sugar Fornaciari - Shake
DYEAR=1900
DGENRE=
TTITLE0=sento le campane
TTITLE1=music in me
TTITLE2=porca l'oca
TTITLE3=ali d'oro
TTITLE4=ahum
TTITLE5=scintille
TTITLE6=balia (sexy thing)
TTITLE7=dindondio
TTITLE8=rossa mela della sera
TTITLE9=shake
TTITLE10=Tobia
EXTD=
EXTT0=
EXTT1=
EXTT2=
EXTT3=
EXTT4=
EXTT5=
EXTT6=
EXTT7=
EXTT8=
EXTT9=
EXTT10=
PLAYORDER=
